<svg width="125" height="70" viewBox="0 0 125 70" fill="none" xmlns="http://www.w3.org/2000/svg">
<path d="M6.20312 3.8125H17.8438L17.6094 6L17.2578 9.125H10.3047L9.75781 14.3594H16.1641L15.6562 18.8906H9.28906L8.54688 25.7266H15.5391L14.9531 31H3.35156L6.20312 3.8125ZM30.0312 18.1484L31.5156 3.8125H36.1641L33.3125 31H29.25L23.7422 16.625L22.2188 31H17.6875L20.5391 3.8125H24.5625L30.0312 18.1484ZM43.625 31H40.6172L41.5547 21.8594L42.8828 9.125H37.7656L38 6.85938L38.3125 3.8125H53.8984L53.6641 5.96094L53.3516 9.125H48.1172L47.1797 18.1875L45.8125 31H43.625ZM52.8438 31L55.4609 3.8125H65.3047C65.6693 3.8125 66.0469 3.82552 66.4375 3.85156C66.8542 3.8776 67.1667 4.02083 67.375 4.28125C67.7656 4.77604 67.9089 5.57031 67.8047 6.66406L67.6484 7.99219L66.7891 16.1953C66.737 16.7422 66.6328 17.2109 66.4766 17.6016C66.3464 17.9922 66.1771 18.3307 65.9688 18.6172C65.526 19.112 64.875 19.3594 64.0156 19.3594H63.3906H63.2734H63.1562L65.9297 30.7266V30.8828L65.8906 31H63H60.9297L58.4688 20.8828L57.4141 31H54.7188H52.8438ZM58.8203 12.6406L58.5078 15.8828H60.7344H62.5312L63.2734 9.125H59.2109L58.8203 12.6406ZM85.1484 5.57031C85.1745 6.03906 85.1745 6.50781 85.1484 6.97656L82.9219 27.8359C82.8958 28.3047 82.8047 28.7734 82.6484 29.2422C82.5703 29.4245 82.4792 29.6068 82.375 29.7891C82.2969 29.9453 82.2057 30.0885 82.1016 30.2188C81.8411 30.5052 81.5677 30.7005 81.2812 30.8047C80.9948 30.9349 80.6302 31 80.1875 31H70.5C70.0573 31 69.7057 30.9349 69.4453 30.8047C69.1849 30.7005 68.9635 30.5052 68.7812 30.2188C68.6771 30.0885 68.599 29.9453 68.5469 29.7891C68.4948 29.6068 68.4557 29.4245 68.4297 29.2422C68.3776 28.7734 68.3776 28.3047 68.4297 27.8359L70.6172 6.97656C70.6693 6.50781 70.7604 6.03906 70.8906 5.57031C70.9948 5.38802 71.0859 5.21875 71.1641 5.0625C71.2422 4.88021 71.3464 4.72396 71.4766 4.59375C71.7109 4.30729 71.9714 4.11198 72.2578 4.00781C72.5443 3.8776 72.9219 3.8125 73.3906 3.8125H83.0391C83.4818 3.8125 83.8333 3.8776 84.0938 4.00781C84.3542 4.11198 84.5885 4.30729 84.7969 4.59375C84.875 4.72396 84.9401 4.88021 84.9922 5.0625C85.0443 5.21875 85.0964 5.38802 85.1484 5.57031ZM78.4688 25.7266L80.2266 9.125H75.0312L73.2734 25.7266H73.7031H74.2891H77.9219H78.4688ZM89.9531 25.8438L89.4062 31H87.5312H84.7578L87.6094 3.8125H98.1953C98.638 3.8125 99.0156 3.82552 99.3281 3.85156C99.6406 3.8776 99.875 4.03385 100.031 4.32031C100.422 4.8151 100.565 5.59635 100.461 6.66406L99.1719 18.9297C99.0677 19.9714 98.7682 20.7786 98.2734 21.3516C97.7526 21.8724 97.0755 22.1328 96.2422 22.1328H93.7812H90.3438L89.9531 25.8438ZM91.7109 9.125L90.8516 17.4062H94.9141L95.8125 9.125H91.7109ZM105.305 31H100.07L102.922 3.8125H108.117L105.305 31ZM117.258 25.7266L117.609 22.6797H122.258L121.711 27.8359C121.685 28.0964 121.646 28.3438 121.594 28.5781C121.568 28.8125 121.516 29.0339 121.438 29.2422C121.281 29.6328 121.099 29.9583 120.891 30.2188C120.656 30.4792 120.396 30.6745 120.109 30.8047C119.927 30.8828 119.732 30.9349 119.523 30.9609C119.341 30.987 119.159 31 118.977 31H109.289C108.846 31 108.495 30.9349 108.234 30.8047C107.974 30.7005 107.753 30.5052 107.57 30.2188C107.466 30.0885 107.388 29.9453 107.336 29.7891C107.284 29.6068 107.245 29.4245 107.219 29.2422C107.167 28.7734 107.167 28.3047 107.219 27.8359L109.406 6.97656C109.458 6.50781 109.549 6.03906 109.68 5.57031C109.784 5.38802 109.875 5.21875 109.953 5.0625C110.031 4.88021 110.135 4.72396 110.266 4.59375C110.5 4.30729 110.76 4.11198 111.047 4.00781C111.333 3.8776 111.711 3.8125 112.18 3.8125H121.828C122.01 3.8125 122.193 3.82552 122.375 3.85156C122.583 3.8776 122.766 3.92969 122.922 4.00781C123.182 4.11198 123.404 4.30729 123.586 4.59375C123.742 4.85417 123.859 5.17969 123.938 5.57031C123.99 5.9349 123.99 6.40365 123.938 6.97656L123.391 12.1328H118.703L119.016 9.125H113.82L112.062 25.7266H117.258Z" fill="url(#paint0_linear_2015_10)"/>
<path d="M14.4922 34.8125H18.8672L16.0156 62C14.9479 62.026 14.1406 62.026 13.5938 62C13.0729 62 12.526 62 11.9531 62L13.3984 48.4062L10.0391 58.25H7.14844L5.85938 48.5234L4.45312 62C3.28125 62.026 2.42188 62.026 1.875 62C1.32812 62 0.820312 62 0.351562 62L3.20312 34.8125H7.26562L9.72656 46.9219L14.4922 34.8125ZM24.0234 57.4688C23.9974 57.599 23.9323 57.8594 23.8281 58.25C23.75 58.6406 23.6589 59.0833 23.5547 59.5781C23.4505 60.0469 23.3464 60.5156 23.2422 60.9844C23.1641 61.4271 23.099 61.7656 23.0469 62H18.1641V61.9219L25.625 34.8125H30.9375L32.6562 61.9219V62H27.8125C27.8125 61.5052 27.8125 60.8802 27.8125 60.125C27.8125 59.3438 27.8125 58.4583 27.8125 57.4688H24.0234ZM25.1562 52.9375H27.5781C27.5521 51.8958 27.513 50.5938 27.4609 49.0312C27.4349 47.4427 27.4089 45.6198 27.3828 43.5625C27.2526 44.0833 27.1094 44.6693 26.9531 45.3203C26.7969 45.9714 26.6276 46.6875 26.4453 47.4688L25.1562 52.9375ZM47.4219 49.1484L48.9062 34.8125H53.5547L50.7031 62H46.6406L41.1328 47.625L39.6094 62H35.0781L37.9297 34.8125H41.9531L47.4219 49.1484ZM65 40.125H59.8047L58.0469 56.7266H63.2422L63.75 52.0391H61.5625L62.0312 47.625H68.8672L68.3984 52.0391H68.4375L67.6953 58.8359C67.6693 59.0964 67.6302 59.3438 67.5781 59.5781C67.5521 59.8125 67.5 60.0339 67.4219 60.2422C67.2656 60.6328 67.0833 60.9583 66.875 61.2188C66.6406 61.4792 66.3802 61.6745 66.0938 61.8047C65.9115 61.8828 65.7161 61.9349 65.5078 61.9609C65.3255 61.987 65.1432 62 64.9609 62H55.2734C54.8307 62 54.4792 61.9349 54.2188 61.8047C53.9583 61.7005 53.737 61.5052 53.5547 61.2188C53.4505 61.0885 53.3724 60.9453 53.3203 60.7891C53.2682 60.6068 53.2292 60.4245 53.2031 60.2422C53.151 59.7734 53.151 59.3047 53.2031 58.8359L55.3906 37.9766C55.4427 37.5078 55.5339 37.0391 55.6641 36.5703C55.7682 36.388 55.8594 36.2188 55.9375 36.0625C56.0156 35.8802 56.1198 35.724 56.25 35.5938C56.4844 35.3073 56.7448 35.112 57.0312 35.0078C57.3177 34.8776 57.6953 34.8125 58.1641 34.8125H67.8125C67.9948 34.8125 68.1771 34.8255 68.3594 34.8516C68.5677 34.8776 68.75 34.9297 68.9062 35.0078C69.1667 35.112 69.388 35.3073 69.5703 35.5938C69.7266 35.8542 69.8438 36.1797 69.9219 36.5703C69.974 36.9349 69.974 37.4036 69.9219 37.9766L69.375 43.1328H64.6875L65 40.125ZM86.6016 36.5703C86.6276 37.0391 86.6276 37.5078 86.6016 37.9766L84.375 58.8359C84.349 59.3047 84.2578 59.7734 84.1016 60.2422C84.0234 60.4245 83.9323 60.6068 83.8281 60.7891C83.75 60.9453 83.6589 61.0885 83.5547 61.2188C83.2943 61.5052 83.0208 61.7005 82.7344 61.8047C82.4479 61.9349 82.0833 62 81.6406 62H71.9531C71.5104 62 71.1589 61.9349 70.8984 61.8047C70.638 61.7005 70.4167 61.5052 70.2344 61.2188C70.1302 61.0885 70.0521 60.9453 70 60.7891C69.9479 60.6068 69.9089 60.4245 69.8828 60.2422C69.8307 59.7734 69.8307 59.3047 69.8828 58.8359L72.0703 37.9766C72.1224 37.5078 72.2135 37.0391 72.3438 36.5703C72.4479 36.388 72.5391 36.2188 72.6172 36.0625C72.6953 35.8802 72.7995 35.724 72.9297 35.5938C73.1641 35.3073 73.4245 35.112 73.7109 35.0078C73.9974 34.8776 74.375 34.8125 74.8438 34.8125H84.4922C84.9349 34.8125 85.2865 34.8776 85.5469 35.0078C85.8073 35.112 86.0417 35.3073 86.25 35.5938C86.3281 35.724 86.3932 35.8802 86.4453 36.0625C86.4974 36.2188 86.5495 36.388 86.6016 36.5703ZM79.9219 56.7266L81.6797 40.125H76.4844L74.7266 56.7266H75.1562H75.7422H79.375H79.9219Z" fill="url(#paint1_linear_2015_10)"/>
<path d="M97.1953 40.125H94.6562L96.5703 34.8125H102.977L100.125 62H94.8906L97.1953 40.125ZM117.078 55.3984L116.375 62H111.297L112 55.3984L102 55.4375L111.375 34.8125H119.266L117.664 49.8906H120.008L119.422 55.3984H117.078ZM113.602 40.75L109.773 49.8906H112.625L113.602 40.75Z" fill="url(#paint2_linear_2015_10)"/>
<line x1="6.00031" y1="1.5" x2="125" y2="1.5246" stroke="black" stroke-width="3"/>
<line x1="0.000310048" y1="64.5" x2="119" y2="64.5246" stroke="black" stroke-width="3"/>
<defs>
<linearGradient id="paint0_linear_2015_10" x1="63.5" y1="0" x2="63.5" y2="70" gradientUnits="userSpaceOnUse">
<stop stop-color="#5F0663"/>
<stop offset="1" stop-color="#D316E7"/>
</linearGradient>
<linearGradient id="paint1_linear_2015_10" x1="43" y1="31" x2="43" y2="66" gradientUnits="userSpaceOnUse">
<stop stop-color="#5F0663"/>
<stop offset="1" stop-color="#D316E7"/>
</linearGradient>
<linearGradient id="paint2_linear_2015_10" x1="106" y1="31" x2="106" y2="66" gradientUnits="userSpaceOnUse">
<stop stop-color="#5F0663"/>
<stop offset="1" stop-color="#D316E7"/>
</linearGradient>
</defs>
</svg>
